<?xml version="1.0" encoding="UTF-8"?>
<svg width="21px" height="15px" viewBox="0 0 21 15" version="1.1" xmlns="http://www.w3.org/2000/svg" xmlns:xlink="http://www.w3.org/1999/xlink">
    <title>DZ</title>
    <defs>
        <rect id="path-1" x="0" y="0" width="21" height="15" rx="2"></rect>
        <rect id="path-3" x="0.5" y="0.5" width="20" height="14" rx="1"></rect>
    </defs>
    <g id=":)" stroke="none" stroke-width="1" fill="none" fill-rule="evenodd">
        <g id="Flags-by-@lucchaissac" transform="translate(-174.000000, -80.000000)">
            <g id="DZ" transform="translate(174.000000, 80.000000)">
                <mask id="mask-2" fill="white">
                    <use xlink:href="#path-1"></use>
                </mask>
                <use id="background" fill="#FFFFFF" xlink:href="#path-1"></use>
                <rect id="left" fill="#357C58" mask="url(#mask-2)" x="0" y="0" width="10" height="15"></rect>
                <path d="M9.5,3 C10.9432271,3 12.2277692,3.67941107 13.0512357,4.73584248 C12.4155874,4.27471789 11.6171672,4 10.75,4 C8.67893219,4 7,5.56700338 7,7.5 C7,9.43299662 8.67893219,11 10.75,11 C11.6171672,11 12.4155874,10.7252821 13.0508034,10.2640064 C12.2277692,11.3205889 10.9432271,12 9.5,12 C7.01471863,12 5,9.98528137 5,7.5 C5,5.01471863 7.01471863,3 9.5,3 Z" id="circle" fill="#E82E2E" mask="url(#mask-2)"></path>
                <path d="" id="star" stroke="#E6B6B7" mask="url(#mask-2)"></path>
                <rect id="star" fill="#E82E2E" mask="url(#mask-2)" x="14" y="7" width="1" height="1"></rect>
                <mask id="mask-4" fill="white">
                    <use xlink:href="#path-3"></use>
                </mask>
                <use id="overlay" stroke-opacity="0.156646286" stroke="#2F343A" xlink:href="#path-3"></use>
            </g>
        </g>
    </g>
</svg>