<?xml version="1.0" encoding="UTF-8"?>
<svg width="21px" height="15px" viewBox="0 0 21 15" version="1.1" xmlns="http://www.w3.org/2000/svg" xmlns:xlink="http://www.w3.org/1999/xlink">
    <title>MX</title>
    <defs>
        <rect id="path-1" x="0" y="0" width="21" height="15" rx="2"></rect>
        <rect id="path-3" x="0.5" y="0.5" width="20" height="14" rx="1"></rect>
    </defs>
    <g id=":)" stroke="none" stroke-width="1" fill="none" fill-rule="evenodd">
        <g id="Flags-by-@lucchaissac" transform="translate(-174.000000, -180.000000)">
            <g id="MX" transform="translate(174.000000, 180.000000)">
                <mask id="mask-2" fill="white">
                    <use xlink:href="#path-1"></use>
                </mask>
                <use id="background" fill="#FFFFFF" xlink:href="#path-1"></use>
                <rect id="left" fill="#196F52" mask="url(#mask-2)" x="0" y="0" width="7" height="15"></rect>
                <circle id="gold" fill="#9B7745" mask="url(#mask-2)" cx="10.5" cy="6.5" r="1.5"></circle>
                <path d="M14,8 L14,9 L12.9499027,9.00043449 C12.7180997,10.1413382 11.7093254,11 10.5,11 C9.29067455,11 8.28190033,10.1413382 8.05009729,9.00043449 L7,9 L7,8 L9.08524952,8.00029246 C9.03003963,8.15659927 9,8.32479157 9,8.5 C9,9.32842712 9.67157288,10 10.5,10 C11.3284271,10 12,9.32842712 12,8.5 C12,8.32479157 11.9699604,8.15659927 11.9147505,8.00029246 L14,8 Z" id="symbol" fill="#B2B593" mask="url(#mask-2)"></path>
                <rect id="right" fill="#CF3946" mask="url(#mask-2)" x="14" y="0" width="7" height="15"></rect>
                <mask id="mask-4" fill="white">
                    <use xlink:href="#path-3"></use>
                </mask>
                <use id="overlay" stroke-opacity="0.156646286" stroke="#2F343A" xlink:href="#path-3"></use>
            </g>
        </g>
    </g>
</svg>