<?xml version="1.0" encoding="UTF-8"?>
<svg width="130px" height="32px" viewBox="0 0 130 32" version="1.1" xmlns="http://www.w3.org/2000/svg" xmlns:xlink="http://www.w3.org/1999/xlink">
  <title>Covid Logo</title>
  <g id="Page-1" stroke="none" stroke-width="1" fill="none" fill-rule="evenodd">
    <g id="Main-Page" transform="translate(-25.000000, -16.000000)">
      <rect id="Rectangle" x="0" y="0" width="1433" height="64"></rect>
      <g id="Logo" transform="translate(25.000000, 16.000000)">
        <text id="COVID19" font-family="Futura-Medium, Futura" font-size="21" font-weight="400">
          <tspan x="38" y="27" fill="#4C515E">COVID</tspan>
          <tspan x="106.321777" y="27" fill="#E1A300">19</tspan>
        </text>
        <g id="Group" fill="#4C515E" fill-rule="nonzero">
          <g id="Virus" transform="translate(0.000000, 0.149533)">
            <path d="M23.9012093,3.01457944 C24.1753937,2.35369126 23.8588789,1.60033681 23.1877394,1.3164099 C22.5165998,1.03248299 21.7354774,1.32147984 21.4269767,1.96785047 C21.2191151,2.44181854 21.32181,2.99090719 21.687907,3.36299065 L20.8007442,5.34878505 L21.7892093,5.76897196 L22.6763721,3.78317757 C23.2060679,3.78996269 23.6884951,3.48723457 23.9012093,3.01457944 L23.9012093,3.01457944 Z" id="Path"></path>
            <path d="M28.683907,7.07439252 C29.1916256,6.63799479 29.2887012,5.90257427 28.910837,5.35522714 C28.5329728,4.80788001 27.7972181,4.61815561 27.1908905,4.91171542 C26.5845629,5.20527523 26.2954818,5.8911845 26.5151163,6.51514019 L24.8758605,7.97757009 L25.6049302,8.75214953 L27.244186,7.28971963 C27.7249288,7.50615542 28.2919436,7.42135171 28.683907,7.07439252 L28.683907,7.07439252 Z" id="Path"></path>
            <path d="M31.3561395,12.6788785 C32.0469873,12.4378012 32.4133665,11.7029927 32.1808086,11.0249262 C31.9482506,10.3468596 31.2020479,9.97422107 30.5012093,10.1861682 C30.0001507,10.3518218 29.6495146,10.7935454 29.6109767,11.3076636 L27.5020465,11.995514 L27.8443256,12.9914019 L29.9532558,12.3050467 C30.3016682,12.6923878 30.8538719,12.8395356 31.3561395,12.6788785 Z" id="Path"></path>
            <path d="M31.4651163,18.8575701 C32.1923208,18.9037963 32.8257782,18.3790615 32.8958685,17.6723831 C32.9659588,16.9657048 32.4473473,16.3325184 31.7245116,16.242243 C31.1977354,16.1953082 30.6931645,16.459636 30.4428837,16.9136449 L28.2295814,16.7057944 L28.1267442,17.7525234 L30.3385116,17.9603738 C30.4960186,18.4520662 30.9391732,18.8049821 31.4651163,18.8575701 L31.4651163,18.8575701 Z" id="Path"></path>
            <path d="M28.974,24.5428037 C29.6204041,24.8811162 30.4258249,24.6540982 30.7869542,24.0317997 C31.1480835,23.4095013 30.9324937,22.6201216 30.3016744,22.2549533 C29.8400682,22.0038173 29.2691156,22.0456087 28.8512093,22.3611215 L26.9157209,21.2949533 L26.3846512,22.2085981 L28.3186047,23.2762617 C28.2571507,23.7881898 28.5150047,24.286489 28.974,24.5428037 L28.974,24.5428037 Z" id="Path"></path>
            <path d="M24.3294419,28.7521495 C24.7217021,29.2898111 25.4622585,29.460948 26.0606012,29.1522072 C26.6589438,28.8434663 26.9297206,28.1504883 26.6935816,27.5322692 C26.4574427,26.9140501 25.7875381,26.5620994 25.1275814,26.7095327 L23.8060465,24.9719626 L22.9373023,25.5970093 L24.2603721,27.3375701 C23.9908186,27.7800918 24.017989,28.3365533 24.3294419,28.7521495 L24.3294419,28.7521495 Z" id="Path"></path>
            <path d="M18.3295814,30.7558879 C18.43377,31.2139891 18.7809035,31.5831407 19.24022,31.7242868 C19.6995365,31.8654328 20.2012549,31.7571299 20.5563828,31.4401746 C20.9115106,31.1232194 21.0660956,30.6457648 20.961907,30.1876636 C20.8449173,29.6849464 20.4311026,29.2988641 19.9105116,29.206729 L19.430093,27.0923364 L18.3771628,27.3196262 L18.8575814,29.4340187 C18.4255125,29.7316954 18.2176892,30.2519893 18.3295814,30.7558879 Z" id="Path"></path>
            <path d="M12.0104651,30.2056075 C11.8866924,30.9058705 12.3565822,31.5751838 13.071334,31.7167146 C13.7860859,31.8582454 14.4868887,31.4207454 14.6535349,30.728972 C14.7563553,30.2237451 14.5394563,29.7075384 14.1025116,29.4175701 L14.546093,27.2942056 L13.4885581,27.0848598 L13.0465116,29.211215 C12.5285596,29.3118154 12.1214455,29.7025616 12.0104651,30.2056075 L12.0104651,30.2056075 Z" id="Path"></path>
            <path d="M6.46646512,27.2149533 C6.06308248,27.7446841 6.12515904,28.483637 6.61158305,28.9424219 C7.09800706,29.4012067 7.85812006,29.4377257 8.38851822,29.0277932 C8.91891637,28.6178607 9.05532127,27.8884437 8.70739535,27.3226168 L9.99823256,25.5596262 L9.12027907,24.9495327 L7.82790698,26.7050467 C7.31012439,26.5927198 6.77366753,26.7936413 6.46646512,27.2149533 Z" id="Path"></path>
            <path d="M2.65534884,22.2669159 C2.03798268,22.645676 1.84152619,23.4339552 2.21187455,24.0463509 C2.58222291,24.6587467 3.38518985,24.873373 4.02446512,24.5308411 C4.47915308,24.2673302 4.72812694,23.7645535 4.65683721,23.2538318 L6.57237209,22.1547664 L6.0244186,21.2485981 L4.10888372,22.3476636 C3.68478493,22.0393387 3.11267453,22.0075565 2.65534884,22.2669159 Z" id="Path"></path>
            <path d="M1.23711628,16.2437383 C0.51266,16.3430518 0.00145401824,16.9867821 0.0847117942,17.6948906 C0.16796957,18.402999 0.815350263,18.9174364 1.54409302,18.8545794 C2.06922443,18.7935153 2.50608708,18.4326644 2.65381395,17.9379439 L4.86251163,17.6942056 L4.74125581,16.6474766 L2.53102326,16.8971963 C2.27312783,16.4464256 1.76386766,16.1892355 1.23711628,16.2437383 L1.23711628,16.2437383 Z" id="Path"></path>
            <path d="M2.45581395,10.1801869 C1.75211889,9.9815968 1.01434681,10.3664071 0.793830286,11.0470513 C0.573313767,11.7276956 0.95065113,12.4553999 1.64386047,12.6863551 C2.14919173,12.8383355 2.6988519,12.6818063 3.04060465,12.2885981 L5.16181395,12.9405607 L5.48567442,11.9371963 L3.366,11.2852336 C3.31662997,10.772744 2.95867625,10.3381564 2.45581395,10.1801869 Z" id="Path"></path>
            <path d="M6.09962791,5.12149533 C5.60136685,4.67475331 4.84038263,4.65704691 4.32079833,5.08010594 C3.80121404,5.50316496 3.68401996,6.23590694 4.04685271,6.79291819 C4.40968547,7.34992944 5.14012335,7.55862315 5.75427907,7.28074766 L7.41962791,8.71626168 L8.13488372,7.92523364 L6.46953488,6.48971963 C6.63799004,6.00260946 6.49252601,5.46456224 6.09962791,5.12149533 L6.09962791,5.12149533 Z" id="Path"></path>
            <path d="M11.5407907,1.94392523 C11.2318066,1.28324815 10.4315729,0.991689284 9.7534186,1.29271028 C9.07526431,1.59373128 8.77599269,2.37334161 9.08497674,3.03401869 C9.30657383,3.50200584 9.79328581,3.79615507 10.322093,3.78168224 L11.2430233,5.75252336 L12.2253488,5.31588785 L11.3044186,3.34504673 C11.6643365,2.96637271 11.7573699,2.41490718 11.5407907,1.94392523 L11.5407907,1.94392523 Z" id="Path"></path>
            <path d="M17.8937237,1.30322547 C17.889611,0.833638252 17.6286618,0.401859324 17.209173,0.170535633 C16.7896842,-0.0607880586 16.2753863,-0.0565129425 15.8600102,0.181750586 C15.4446341,0.420014115 15.1912854,0.856068158 15.1953982,1.32565538 C15.202594,1.84244265 15.5266582,2.30482019 16.0180958,2.49948715 L16.0380493,4.6647208 L17.1124679,4.65574884 L17.0925144,2.49948715 C17.5829663,2.29485829 17.899008,1.82298583 17.8937237,1.30322547 Z" id="Path"></path>
            <ellipse id="Oval" cx="16.3403721" cy="16.068785" rx="11.8892093" ry="11.5828037"></ellipse>
            <path d="M14.0672093,21.3353271 C14.1284483,21.1479412 14.2630016,20.9916055 14.4417209,20.9001869 C14.6759056,20.777277 14.9597929,20.7863127 15.1852434,20.9238523 C15.4106939,21.0613919 15.5429961,21.306259 15.5317529,21.5651779 C15.5205098,21.8240968 15.3674523,22.0572031 15.1308837,22.1757009 C14.9542008,22.2661678 14.7482905,22.2860136 14.5568372,22.231028" id="Path" stroke="#E1A300" stroke-width="0.5" stroke-linecap="round"></path>
            <path d="M21.0555349,22.6168224 C21.3963448,22.8807312 21.5399983,23.3189173 21.4193037,23.7264262 C21.2986092,24.1339352 20.9374261,24.4302081 20.5046923,24.4766681 C20.0719585,24.5231281 19.6532191,24.3105907 19.444333,23.9384669 C19.2354469,23.566343 19.2777078,23.1081964 19.5513488,22.7783178" id="Path" stroke="#FFFFFF" stroke-width="0.5" stroke-linecap="round"></path>
            <path d="M24.8359535,17.0841121 C24.3150934,17.3253308 23.7172942,17.3554453 23.1736744,17.1678505 C22.4246157,16.952158 21.8583731,16.3520887 21.7006276,15.6068056 C21.5428821,14.8615225 21.8192764,14.0921764 22.4196511,13.605397 C23.0200257,13.1186177 23.8467858,12.9935343 24.5704186,13.28 C25.109559,13.4630841 25.5540062,13.8440321 25.8090698,14.3416822" id="Path" stroke="#E1A300" stroke-width="0.5" stroke-linecap="round"></path>
            <path d="M17.7816279,8.45158879 C17.9064559,8.0688406 18.1826195,7.7502897 18.5490698,7.56635514 C19.026144,7.32194541 19.600819,7.34405824 20.0566204,7.62436393 C20.5124218,7.90466962 20.7801025,8.40058308 20.7588297,8.92529851 C20.737557,9.45001393 20.4305626,9.92381457 19.9534884,10.1682243 C19.5940547,10.3542064 19.1739652,10.3950253 18.783907,10.2818692" id="Path" stroke="#FFFFFF" stroke-width="0.5" stroke-linecap="round"></path>
            <path d="M16.3511163,14.0426168 C16.3124808,14.3354993 16.0985186,14.5778262 15.8070403,14.6588201 C15.515562,14.7398139 15.2025767,14.6439114 15.0111628,14.4149533 C14.8332508,14.1778303 14.8160855,13.8606557 14.9674165,13.606621 C15.1187474,13.3525862 15.4099409,13.2097577 15.7095349,13.2426168" id="Path" stroke="#FFFFFF" stroke-width="0.5" stroke-linecap="round"></path>
            <path d="M9.00209302,20.1869159 C8.61922496,19.9849396 8.39932768,19.5778212 8.44527134,19.1560148 C8.49121501,18.7342084 8.79391539,18.3811159 9.21176619,18.2619174 C9.62961699,18.142719 10.0799985,18.2809832 10.3522176,18.6120287 C10.6244367,18.9430742 10.6646689,19.4014449 10.454093,19.7727103" id="Path" stroke="#FFFFFF" stroke-width="0.5" stroke-linecap="round"></path>
            <path d="M8.57386047,10.72 C9.04344515,10.394543 9.6261582,10.2633709 10.1946977,10.3551402 C10.9576006,10.455823 11.6042275,10.9521287 11.8832591,11.6511623 C12.1622908,12.3501958 12.029719,13.1417074 11.5370695,13.7180668 C11.0444199,14.2944262 10.2693919,14.5647314 9.5132093,14.4239252 C8.94931631,14.3357625 8.44341365,14.0356412 8.10418605,13.5880374" id="Path" stroke="#E1A300" stroke-width="0.5" stroke-linecap="round"></path>
          </g>
        </g>
      </g>
    </g>
  </g>
</svg>
