<?xml version="1.0" encoding="utf-8"?>
<!-- Generator: Adobe Illustrator 22.1.0, SVG Export Plug-In . SVG Version: 6.00 Build 0)  -->
<svg version="1.1" id="Layer_1" xmlns="http://www.w3.org/2000/svg" xmlns:xlink="http://www.w3.org/1999/xlink" x="0px" y="0px"
	 viewBox="0 0 361.8 343.8" style="enable-background:new 0 0 361.8 343.8;" xml:space="preserve">
<style type="text/css">
	.st0{fill:#4C515E;}
	.st1{fill:#E1A300;}
	.st2{fill:#FFFFFF;}
</style>
<g id="Virus_1_" transform="translate(0.000000, 0.149533)">
	<path id="Path_43_" class="st0" d="M153.8,19.3c1.8-4.3-0.3-9.1-4.6-11c-4.3-1.8-9.4,0-11.4,4.2c-1.3,3.1-0.7,6.6,1.7,9l-5.7,12.8
		l6.4,2.7l5.7-12.8C149.3,24.3,152.4,22.4,153.8,19.3L153.8,19.3z"/>
	<path id="Path_42_" class="st0" d="M184.7,45.5c3.3-2.8,3.9-7.6,1.5-11.1c-2.4-3.5-7.2-4.8-11.1-2.9c-3.9,1.9-5.8,6.3-4.4,10.4
		l-10.6,9.4l4.7,5l10.6-9.4C178.5,48.3,182.2,47.8,184.7,45.5L184.7,45.5z"/>
	<path id="Path_41_" class="st0" d="M201.9,81.7c4.5-1.6,6.8-6.3,5.3-10.7c-1.5-4.4-6.3-6.8-10.8-5.4c-3.2,1.1-5.5,3.9-5.7,7.2
		l-13.6,4.4l2.2,6.4l13.6-4.4C195.1,81.8,198.7,82.7,201.9,81.7z"/>
	<path id="Path_40_" class="st0" d="M202.6,121.6c4.7,0.3,8.8-3.1,9.2-7.7c0.5-4.6-2.9-8.7-7.6-9.2c-3.4-0.3-6.7,1.4-8.3,4.3
		l-14.3-1.3l-0.7,6.8l14.3,1.3C196.4,119,199.3,121.3,202.6,121.6L202.6,121.6z"/>
	<path id="Path_39_" class="st0" d="M186.6,158.3c4.2,2.2,9.4,0.7,11.7-3.3c2.3-4,0.9-9.1-3.1-11.5c-3-1.6-6.7-1.4-9.4,0.7
		l-12.5-6.9l-3.4,5.9l12.5,6.9C181.9,153.4,183.6,156.6,186.6,158.3L186.6,158.3z"/>
	<path id="Path_38_" class="st0" d="M156.6,185.5c2.5,3.5,7.3,4.6,11.2,2.6c3.9-2,5.6-6.5,4.1-10.5c-1.5-4-5.8-6.3-10.1-5.3
		l-8.5-11.2l-5.6,4l8.5,11.2C154.4,179.2,154.6,182.8,156.6,185.5L156.6,185.5z"/>
	<path id="Path_37_" class="st0" d="M117.8,198.4c0.7,3,2.9,5.3,5.9,6.3c3,0.9,6.2,0.2,8.5-1.8c2.3-2,3.3-5.1,2.6-8.1
		c-0.8-3.2-3.4-5.7-6.8-6.3l-3.1-13.7l-6.8,1.5l3.1,13.7C118.5,191.8,117.1,195.2,117.8,198.4z"/>
	<path id="Path_36_" class="st0" d="M77,194.9c-0.8,4.5,2.2,8.8,6.8,9.8s9.1-1.9,10.2-6.4c0.7-3.3-0.7-6.6-3.6-8.5l2.9-13.7
		l-6.8-1.4l-2.9,13.7C80.4,189.1,77.8,191.6,77,194.9L77,194.9z"/>
	<path id="Path_35_" class="st0" d="M41.3,175.5c-2.6,3.4-2.2,8.2,0.9,11.2c3.1,3,8,3.2,11.5,0.6c3.4-2.6,4.3-7.4,2.1-11l8.3-11.4
		l-5.7-3.9L50,172.3C46.7,171.5,43.2,172.8,41.3,175.5z"/>
	<path id="Path_34_" class="st0" d="M16.7,143.6c-4,2.4-5.3,7.5-2.9,11.5s7.6,5.3,11.7,3.1c2.9-1.7,4.5-4.9,4.1-8.2l12.4-7.1
		l-3.5-5.9L26,144.1C23.3,142.1,19.6,141.9,16.7,143.6z"/>
	<path id="Path_33_" class="st0" d="M7.5,104.7c-4.7,0.6-8,4.8-7.4,9.4s4.7,7.9,9.4,7.5c3.4-0.4,6.2-2.7,7.2-5.9l14.3-1.6l-0.8-6.8
		l-14.3,1.6C14.2,106,10.9,104.4,7.5,104.7L7.5,104.7z"/>
	<path id="Path_32_" class="st0" d="M15.4,65.6c-4.5-1.3-9.3,1.2-10.7,5.6c-1.4,4.4,1,9.1,5.5,10.6c3.3,1,6.8,0,9-2.6l13.7,4.2
		l2.1-6.5l-13.7-4.2C20.9,69.4,18.6,66.6,15.4,65.6z"/>
	<path id="Path_31_" class="st0" d="M38.9,32.9c-3.2-2.9-8.1-3-11.5-0.3c-3.4,2.7-4.1,7.5-1.8,11.1s7.1,4.9,11,3.1l10.8,9.3L52,51
		l-10.8-9.3C42.4,38.6,41.4,35.1,38.9,32.9L38.9,32.9z"/>
	<path id="Path_30_" class="st0" d="M74,12.4c-2-4.3-7.2-6.1-11.5-4.2c-4.4,1.9-6.3,7-4.3,11.2c1.4,3,4.6,4.9,8,4.8L72.1,37l6.3-2.8
		l-5.9-12.7C74.8,19,75.4,15.4,74,12.4L74,12.4z"/>
	<path id="Path_29_" class="st0" d="M115,8.3c0-3-1.7-5.8-4.4-7.3s-6-1.5-8.7,0.1c-2.7,1.5-4.3,4.4-4.3,7.4c0,3.3,2.1,6.3,5.3,7.6
		l0.1,14l6.9-0.1L109.9,16C113,14.7,115.1,11.6,115,8.3z"/>
	<ellipse id="Oval_1_" class="st0" cx="105" cy="103.6" rx="76.8" ry="74.8"/>
	<g>
		<path id="Path_28_" class="st0" d="M90.3,137.6c0.4-1.2,1.3-2.2,2.4-2.8c1.5-0.8,3.3-0.7,4.8,0.2c1.5,0.9,2.3,2.5,2.2,4.1
			s-1.1,3.2-2.6,3.9c-1.1,0.6-2.5,0.7-3.7,0.4"/>
		<path class="st1" d="M94.9,145.2c-0.6,0-1.2-0.1-1.8-0.3c-0.9-0.2-1.4-1.1-1.1-2c0.2-0.9,1.1-1.4,2-1.1c0.8,0.2,1.7,0.2,2.5-0.2
			c1-0.5,1.7-1.5,1.7-2.6c0-1.1-0.5-2.1-1.5-2.7c-1-0.6-2.2-0.6-3.2-0.1c-0.8,0.4-1.4,1.1-1.6,1.9c-0.3,0.8-1.2,1.3-2,1
			c-0.8-0.3-1.3-1.2-1-2c0.5-1.6,1.7-3,3.2-3.7c2-1,4.4-1,6.4,0.2c2,1.2,3.1,3.3,3,5.6c-0.1,2.3-1.4,4.3-3.5,5.3
			C97,144.9,95.9,145.2,94.9,145.2z"/>
	</g>
	<g>
		<path id="Path_27_" class="st0" d="M135.4,145.9c2.2,1.7,3.1,4.5,2.3,7.2c-0.8,2.6-3.1,4.5-5.9,4.8c-2.8,0.3-5.5-1.1-6.8-3.5
			c-1.3-2.4-1.1-5.4,0.7-7.5"/>
		<path class="st2" d="M131.1,159.5c-3.1,0-6-1.6-7.5-4.3c-1.7-3-1.3-6.7,0.9-9.3c0.6-0.7,1.6-0.8,2.3-0.2c0.7,0.6,0.8,1.6,0.2,2.3
			c-1.3,1.6-1.5,3.9-0.5,5.7c1,1.8,3.1,2.9,5.3,2.7c2.2-0.2,3.9-1.7,4.5-3.7c0.6-2-0.1-4.1-1.8-5.4c-0.7-0.5-0.8-1.6-0.3-2.3
			c0.5-0.7,1.6-0.8,2.3-0.3c2.7,2.1,3.9,5.6,2.9,8.9c-1,3.3-3.8,5.6-7.3,6C131.7,159.5,131.4,159.5,131.1,159.5z"/>
	</g>
	<g>
		<path id="Path_26_" class="st0" d="M159.8,110.1c-3.4,1.6-7.2,1.8-10.7,0.5c-4.8-1.4-8.5-5.3-9.5-10.1c-1-4.8,0.8-9.8,4.6-12.9
			c3.9-3.1,9.2-4,13.9-2.1c3.5,1.2,6.3,3.6,8,6.9"/>
		<path class="st1" d="M153.8,113.1c-1.8,0-3.5-0.3-5.2-0.9c-5.3-1.5-9.4-5.9-10.6-11.3c-1.1-5.4,0.8-11,5.2-14.5
			c4.3-3.5,10.3-4.4,15.5-2.3c3.8,1.3,7,4,8.8,7.6c0.4,0.8,0.1,1.8-0.7,2.2c-0.8,0.4-1.8,0.1-2.2-0.7c-1.5-2.9-4-5-7.1-6.1
			c-4.2-1.7-8.9-0.9-12.4,1.8c-3.4,2.8-5,7.1-4.1,11.3c0.9,4.2,4.1,7.6,8.4,8.9c3.2,1.1,6.6,0.9,9.6-0.5c0.8-0.4,1.8,0,2.1,0.8
			c0.4,0.8,0,1.8-0.8,2.1C158.4,112.6,156.1,113.1,153.8,113.1z"/>
	</g>
	<g>
		<path id="Path_25_" class="st0" d="M114.3,54.4c0.8-2.5,2.6-4.5,5-5.7c3.1-1.6,6.8-1.4,9.7,0.4c2.9,1.8,4.7,5,4.5,8.4
			c-0.1,3.4-2.1,6.4-5.2,8c-2.3,1.2-5,1.5-7.6,0.7"/>
		<path class="st2" d="M123.6,68.3c-1.1,0-2.2-0.2-3.3-0.5c-0.9-0.2-1.3-1.1-1.1-2c0.2-0.9,1.1-1.4,2-1.1c2.1,0.6,4.4,0.4,6.4-0.6
			c2.6-1.3,4.2-3.9,4.3-6.7c0.1-2.8-1.3-5.5-3.8-7c-2.5-1.5-5.6-1.6-8.2-0.3c-2,1-3.5,2.7-4.2,4.8c-0.3,0.9-1.2,1.3-2,1
			c-0.8-0.3-1.3-1.2-1-2c0.9-2.9,3-5.3,5.8-6.7c3.6-1.8,7.9-1.7,11.3,0.4c3.4,2.1,5.5,5.9,5.3,9.8c-0.2,4-2.5,7.6-6.1,9.4
			C127.4,67.8,125.5,68.3,123.6,68.3z"/>
	</g>
	<g>
		<path id="Path_24_" class="st0" d="M105.1,90.5c-0.2,1.9-1.6,3.5-3.5,4c-1.9,0.5-3.9-0.1-5.1-1.6c-1.1-1.5-1.3-3.6-0.3-5.2
			c1-1.6,2.9-2.6,4.8-2.3"/>
		<path class="st2" d="M100.2,96.3c-1.9,0-3.8-0.8-5-2.3c-1.6-2.1-1.7-4.9-0.4-7.1c1.3-2.2,3.8-3.4,6.4-3.1c0.9,0.1,1.5,0.9,1.4,1.8
			c-0.1,0.9-0.9,1.5-1.8,1.4c-1.4-0.2-2.6,0.5-3.2,1.6c-0.6,1.1-0.6,2.4,0.2,3.4c0.8,0.9,2.2,1.3,3.4,1c1.3-0.3,2.2-1.4,2.3-2.6
			c0.1-0.9,0.9-1.5,1.8-1.4c0.9,0.1,1.5,0.9,1.4,1.8c-0.3,2.5-2.2,4.6-4.7,5.3C101.4,96.2,100.8,96.3,100.2,96.3z"/>
	</g>
	<g>
		<path id="Path_23_" class="st0" d="M57.6,130.2c-2.5-1.3-3.9-3.9-3.6-6.7c0.3-2.7,2.3-5,4.9-5.8s5.6,0.1,7.4,2.3
			c1.8,2.1,2,5.1,0.7,7.5"/>
		<path class="st2" d="M57.6,131.8c-0.3,0-0.5-0.1-0.8-0.2c-3.1-1.6-4.8-4.9-4.4-8.3c0.4-3.4,2.8-6.2,6.1-7.1c3.3-1,6.9,0.1,9.1,2.8
			c2.2,2.7,2.5,6.3,0.8,9.3c-0.4,0.8-1.4,1-2.2,0.6c-0.8-0.4-1-1.4-0.6-2.2c1-1.8,0.8-4-0.5-5.7c-1.4-1.7-3.6-2.3-5.7-1.7
			c-2.1,0.6-3.6,2.3-3.8,4.4c-0.2,2.1,0.9,4.1,2.7,5c0.8,0.4,1.1,1.4,0.7,2.2C58.8,131.5,58.2,131.8,57.6,131.8z"/>
	</g>
	<g>
		<path id="Path_22_" class="st0" d="M54.9,69.1c3-2.1,6.8-2.9,10.5-2.4c4.9,0.7,9.1,3.9,10.9,8.4c1.8,4.5,0.9,9.6-2.2,13.3
			c-3.2,3.7-8.2,5.5-13.1,4.6c-3.6-0.6-6.9-2.5-9.1-5.4"/>
		<path class="st1" d="M63.5,94.8c-0.9,0-1.9-0.1-2.9-0.3c-4-0.6-7.6-2.8-10.1-6c-0.5-0.7-0.4-1.7,0.3-2.3c0.7-0.5,1.7-0.4,2.3,0.3
			c2,2.6,4.8,4.3,8.1,4.8c4.4,0.8,8.8-0.7,11.6-4c2.8-3.3,3.5-7.7,2-11.7c-1.6-4-5.3-6.8-9.6-7.4c-3.3-0.6-6.6,0.2-9.3,2.1
			c-0.7,0.5-1.7,0.3-2.2-0.4c-0.5-0.7-0.3-1.7,0.4-2.2c3.4-2.3,7.5-3.3,11.6-2.6c5.5,0.7,10.1,4.3,12.1,9.4c2,5.1,1.1,10.8-2.5,15
			C72.3,92.9,68,94.8,63.5,94.8z"/>
	</g>
</g>
<g id="Virus_2_" transform="translate(0.000000, 0.149533)">
	<path id="Path_44_" class="st0" d="M340.8,95.8c0.6-1.5-0.1-3.3-1.7-3.9c-1.6-0.7-3.4,0-4.1,1.5c-0.5,1.1-0.2,2.4,0.6,3.2l-2.1,4.6
		l2.3,1l2.1-4.6C339.2,97.6,340.4,96.9,340.8,95.8L340.8,95.8z"/>
	<path id="Path_21_" class="st0" d="M352,105.2c1.2-1,1.4-2.7,0.5-4c-0.9-1.3-2.6-1.7-4-1c-1.4,0.7-2.1,2.3-1.6,3.7l-3.8,3.4
		l1.7,1.8l3.8-3.4C349.7,106.2,351,106,352,105.2L352,105.2z"/>
	<path id="Path_20_" class="st0" d="M358.2,118.2c1.6-0.6,2.5-2.3,1.9-3.8c-0.5-1.6-2.3-2.4-3.9-1.9c-1.2,0.4-2,1.4-2.1,2.6
		l-4.9,1.6l0.8,2.3l4.9-1.6C355.7,118.3,357,118.6,358.2,118.2z"/>
	<path id="Path_19_" class="st0" d="M358.4,132.6c1.7,0.1,3.2-1.1,3.3-2.8s-1-3.1-2.7-3.3c-1.2-0.1-2.4,0.5-3,1.6l-5.1-0.5l-0.2,2.4
		l5.1,0.5C356.2,131.6,357.2,132.5,358.4,132.6L358.4,132.6z"/>
	<path id="Path_18_" class="st0" d="M352.6,145.8c1.5,0.8,3.4,0.3,4.2-1.2c0.8-1.4,0.3-3.3-1.1-4.1c-1.1-0.6-2.4-0.5-3.4,0.2
		l-4.5-2.5l-1.2,2.1l4.5,2.5C351,144,351.6,145.2,352.6,145.8L352.6,145.8z"/>
	<path id="Path_17_" class="st0" d="M341.8,155.6c0.9,1.2,2.6,1.6,4,0.9c1.4-0.7,2-2.3,1.5-3.8c-0.5-1.4-2.1-2.3-3.6-1.9l-3.1-4
		l-2,1.5l3.1,4C341.1,153.3,341.1,154.6,341.8,155.6L341.8,155.6z"/>
	<path id="Path_16_" class="st0" d="M327.9,160.2c0.2,1.1,1,1.9,2.1,2.2c1.1,0.3,2.2,0.1,3.1-0.7c0.8-0.7,1.2-1.8,0.9-2.9
		c-0.3-1.2-1.2-2.1-2.4-2.3l-1.1-4.9l-2.4,0.5l1.1,4.9C328.1,157.8,327.6,159.1,327.9,160.2z"/>
	<path id="Path_15_" class="st0" d="M313.2,158.9c-0.3,1.6,0.8,3.2,2.5,3.5s3.3-0.7,3.7-2.3c0.2-1.2-0.3-2.4-1.3-3l1-4.9l-2.5-0.5
		l-1,4.9C314.4,156.9,313.5,157.8,313.2,158.9L313.2,158.9z"/>
	<path id="Path_14_" class="st0" d="M300.3,152c-0.9,1.2-0.8,2.9,0.3,4c1.1,1.1,2.9,1.2,4.1,0.2c1.2-1,1.5-2.6,0.7-4l3-4.1l-2-1.4
		l-3,4.1C302.3,150.6,301.1,151,300.3,152z"/>
	<path id="Path_13_" class="st0" d="M291.5,140.5c-1.4,0.9-1.9,2.7-1,4.1c0.9,1.4,2.7,1.9,4.2,1.1c1.1-0.6,1.6-1.8,1.5-3l4.4-2.6
		l-1.3-2.1l-4.4,2.6C293.9,140,292.6,139.9,291.5,140.5z"/>
	<path id="Path_12_" class="st0" d="M288.2,126.5c-1.7,0.2-2.9,1.7-2.7,3.4c0.2,1.6,1.7,2.8,3.4,2.7c1.2-0.1,2.2-1,2.6-2.1l5.1-0.6
		l-0.3-2.4l-5.1,0.6C290.6,127,289.4,126.4,288.2,126.5L288.2,126.5z"/>
	<path id="Path_11_" class="st0" d="M291,112.4c-1.6-0.5-3.3,0.4-3.9,2c-0.5,1.6,0.4,3.3,2,3.8c1.2,0.4,2.5,0,3.2-0.9l4.9,1.5
		l0.8-2.3l-4.9-1.5C293,113.8,292.2,112.8,291,112.4z"/>
	<path id="Path_10_" class="st0" d="M299.5,100.7c-1.2-1-2.9-1.1-4.1-0.1c-1.2,1-1.5,2.7-0.6,4c0.8,1.3,2.5,1.8,4,1.1l3.9,3.3
		l1.7-1.8l-3.9-3.3C300.7,102.7,300.4,101.5,299.5,100.7L299.5,100.7z"/>
	<path id="Path_9_" class="st0" d="M312.1,93.3c-0.7-1.5-2.6-2.2-4.2-1.5c-1.6,0.7-2.3,2.5-1.6,4c0.5,1.1,1.6,1.8,2.9,1.7l2.1,4.6
		l2.3-1l-2.1-4.6C312.4,95.7,312.6,94.4,312.1,93.3L312.1,93.3z"/>
	<path id="Path_8_" class="st0" d="M326.9,91.8c0-1.1-0.6-2.1-1.6-2.6s-2.2-0.5-3.1,0s-1.6,1.6-1.5,2.7c0,1.2,0.8,2.3,1.9,2.7l0,5
		l2.5,0l0-5C326.2,94.1,326.9,93,326.9,91.8z"/>
	<ellipse id="Oval_2_" class="st0" cx="323.3" cy="126.1" rx="27.6" ry="26.9"/>
	<g>
		<path id="Path_7_" class="st0" d="M318,138.3c0.1-0.4,0.5-0.8,0.9-1c0.5-0.3,1.2-0.3,1.7,0.1c0.5,0.3,0.8,0.9,0.8,1.5
			c0,0.6-0.4,1.1-0.9,1.4c-0.4,0.2-0.9,0.3-1.3,0.1"/>
		<path class="st1" d="M319.6,141.1c-0.2,0-0.4,0-0.7-0.1c-0.3-0.1-0.5-0.4-0.4-0.7c0.1-0.3,0.4-0.5,0.7-0.4
			c0.3,0.1,0.6,0.1,0.9-0.1c0.4-0.2,0.6-0.5,0.6-0.9c0-0.4-0.2-0.8-0.5-1c-0.3-0.2-0.8-0.2-1.2,0c-0.3,0.1-0.5,0.4-0.6,0.7
			c-0.1,0.3-0.4,0.5-0.7,0.4c-0.3-0.1-0.5-0.4-0.4-0.7c0.2-0.6,0.6-1.1,1.2-1.3c0.7-0.4,1.6-0.3,2.3,0.1c0.7,0.4,1.1,1.2,1.1,2
			c0,0.8-0.5,1.5-1.3,1.9C320.4,141,320,141.1,319.6,141.1z"/>
	</g>
	<g>
		<path id="Path_6_" class="st0" d="M334.2,141.3c0.8,0.6,1.1,1.6,0.8,2.6c-0.3,0.9-1.1,1.6-2.1,1.7c-1,0.1-2-0.4-2.5-1.3
			c-0.5-0.9-0.4-1.9,0.2-2.7"/>
		<path class="st2" d="M332.7,146.2c-1.1,0-2.1-0.6-2.7-1.6c-0.6-1.1-0.5-2.4,0.3-3.3c0.2-0.2,0.6-0.3,0.8-0.1
			c0.2,0.2,0.3,0.6,0.1,0.8c-0.5,0.6-0.6,1.4-0.2,2c0.4,0.7,1.1,1,1.9,1c0.8-0.1,1.4-0.6,1.6-1.3c0.2-0.7,0-1.5-0.6-2
			c-0.3-0.2-0.3-0.6-0.1-0.8c0.2-0.3,0.6-0.3,0.8-0.1c1,0.8,1.4,2,1,3.2c-0.3,1.2-1.4,2-2.6,2.2
			C332.9,146.2,332.8,146.2,332.7,146.2z"/>
	</g>
	<g>
		<path id="Path_5_" class="st0" d="M343,128.5c-1.2,0.6-2.6,0.6-3.9,0.2c-1.7-0.5-3.1-1.9-3.4-3.6c-0.4-1.7,0.3-3.5,1.7-4.6
			s3.3-1.4,5-0.8c1.3,0.4,2.3,1.3,2.9,2.5"/>
		<path class="st1" d="M340.8,129.5c-0.6,0-1.3-0.1-1.9-0.3c-1.9-0.6-3.4-2.1-3.8-4.1c-0.4-1.9,0.3-3.9,1.9-5.2
			c1.6-1.3,3.7-1.6,5.6-0.8c1.4,0.5,2.5,1.4,3.2,2.7c0.1,0.3,0,0.6-0.3,0.8c-0.3,0.1-0.6,0-0.8-0.3c-0.5-1-1.4-1.8-2.5-2.2
			c-1.5-0.6-3.2-0.3-4.4,0.7c-1.2,1-1.8,2.6-1.5,4.1c0.3,1.5,1.5,2.7,3,3.2c1.2,0.4,2.4,0.3,3.5-0.2c0.3-0.1,0.6,0,0.8,0.3
			c0.1,0.3,0,0.6-0.3,0.8C342.5,129.3,341.7,129.5,340.8,129.5z"/>
	</g>
	<g>
		<path id="Path_4_" class="st0" d="M326.6,108.4c0.3-0.9,0.9-1.6,1.8-2.1c1.1-0.6,2.4-0.5,3.5,0.1c1.1,0.7,1.7,1.8,1.6,3
			c0,1.2-0.8,2.3-1.9,2.9c-0.8,0.4-1.8,0.5-2.7,0.3"/>
		<path class="st2" d="M330,113.4c-0.4,0-0.8-0.1-1.2-0.2c-0.3-0.1-0.5-0.4-0.4-0.7c0.1-0.3,0.4-0.5,0.7-0.4
			c0.8,0.2,1.6,0.1,2.3-0.2c0.9-0.5,1.5-1.4,1.6-2.4c0-1-0.5-2-1.4-2.5c-0.9-0.5-2-0.6-2.9-0.1c-0.7,0.4-1.3,1-1.5,1.7
			c-0.1,0.3-0.4,0.5-0.7,0.4c-0.3-0.1-0.5-0.4-0.4-0.7c0.3-1,1.1-1.9,2.1-2.4c1.3-0.7,2.8-0.6,4.1,0.2c1.2,0.8,2,2.1,1.9,3.5
			c-0.1,1.4-0.9,2.7-2.2,3.4C331.3,113.2,330.7,113.4,330,113.4z"/>
	</g>
	<g>
		<path id="Path_3_" class="st0" d="M323.3,121.4c-0.1,0.7-0.6,1.2-1.3,1.4c-0.7,0.2-1.4,0-1.8-0.6c-0.4-0.6-0.5-1.3-0.1-1.9
			c0.4-0.6,1-0.9,1.7-0.8"/>
		<path class="st2" d="M321.6,123.5c-0.7,0-1.4-0.3-1.8-0.8c-0.6-0.8-0.6-1.8-0.2-2.5c0.5-0.8,1.4-1.2,2.3-1.1
			c0.3,0,0.5,0.3,0.5,0.6c0,0.3-0.3,0.5-0.6,0.5c-0.5-0.1-0.9,0.2-1.2,0.6c-0.2,0.4-0.2,0.9,0.1,1.2c0.3,0.3,0.8,0.5,1.2,0.4
			c0.5-0.1,0.8-0.5,0.8-0.9c0-0.3,0.3-0.6,0.7-0.5c0.3,0,0.5,0.3,0.5,0.7c-0.1,0.9-0.8,1.7-1.7,1.9
			C322,123.4,321.8,123.5,321.6,123.5z"/>
	</g>
	<g>
		<path id="Path_2_" class="st0" d="M306.2,135.7c-0.9-0.5-1.4-1.4-1.3-2.4c0.1-1,0.8-1.8,1.8-2.1c1-0.3,2,0,2.6,0.8
			c0.6,0.8,0.7,1.8,0.2,2.7"/>
		<path class="st2" d="M306.2,136.2c-0.1,0-0.2,0-0.3-0.1c-1.1-0.6-1.7-1.7-1.6-3c0.1-1.2,1-2.2,2.2-2.6c1.2-0.3,2.5,0.1,3.3,1
			c0.8,1,0.9,2.3,0.3,3.4c-0.2,0.3-0.5,0.4-0.8,0.2c-0.3-0.2-0.4-0.5-0.2-0.8c0.4-0.7,0.3-1.5-0.2-2c-0.5-0.6-1.3-0.8-2-0.6
			c-0.7,0.2-1.3,0.8-1.4,1.6c-0.1,0.7,0.3,1.5,1,1.8c0.3,0.1,0.4,0.5,0.2,0.8C306.6,136.1,306.4,136.2,306.2,136.2z"/>
	</g>
	<g>
		<path id="Path_1_" class="st0" d="M305.2,113.7c1.1-0.8,2.4-1.1,3.8-0.8c1.8,0.2,3.3,1.4,3.9,3s0.3,3.5-0.8,4.8s-2.9,2-4.7,1.6
			c-1.3-0.2-2.5-0.9-3.3-1.9"/>
		<path class="st1" d="M308.3,122.9c-0.3,0-0.7,0-1-0.1c-1.4-0.2-2.7-1-3.6-2.2c-0.2-0.3-0.1-0.6,0.1-0.8c0.3-0.2,0.6-0.1,0.8,0.1
			c0.7,0.9,1.7,1.5,2.9,1.7c1.6,0.3,3.2-0.3,4.2-1.4c1-1.2,1.3-2.8,0.7-4.2c-0.6-1.4-1.9-2.4-3.5-2.6c-1.2-0.2-2.4,0.1-3.4,0.7
			c-0.3,0.2-0.6,0.1-0.8-0.1c-0.2-0.3-0.1-0.6,0.1-0.8c1.2-0.8,2.7-1.2,4.2-0.9c2,0.3,3.6,1.5,4.4,3.4c0.7,1.8,0.4,3.9-0.9,5.4
			C311.5,122.3,310,122.9,308.3,122.9z"/>
	</g>
</g>
<g id="Virus_3_" transform="translate(0.000000, 0.149533)">
	<path id="Path_66_" class="st0" d="M266.4,218.6c1.2-2.9-0.2-6.1-3.1-7.4c-2.9-1.2-6.3,0-7.7,2.8c-0.9,2.1-0.5,4.4,1.1,6.1
		l-3.9,8.6l4.3,1.8l3.9-8.6C263.4,222,265.5,220.7,266.4,218.6L266.4,218.6z"/>
	<path id="Path_65_" class="st0" d="M287.2,236.3c2.2-1.9,2.6-5.1,1-7.5c-1.6-2.4-4.8-3.2-7.5-1.9c-2.6,1.3-3.9,4.3-2.9,7l-7.1,6.4
		l3.2,3.4l7.1-6.4C283,238.1,285.5,237.8,287.2,236.3L287.2,236.3z"/>
	<path id="Path_64_" class="st0" d="M298.8,260.6c3-1,4.6-4.2,3.6-7.2c-1-2.9-4.3-4.6-7.3-3.6c-2.2,0.7-3.7,2.6-3.9,4.9l-9.2,3
		l1.5,4.3l9.2-3C294.2,260.7,296.6,261.3,298.8,260.6z"/>
	<path id="Path_63_" class="st0" d="M299.3,287.5c3.2,0.2,5.9-2.1,6.2-5.2c0.3-3.1-1.9-5.8-5.1-6.2c-2.3-0.2-4.5,0.9-5.6,2.9
		l-9.6-0.9l-0.4,4.5l9.6,0.9C295.1,285.7,297,287.2,299.3,287.5L299.3,287.5z"/>
	<path id="Path_62_" class="st0" d="M288.5,312.2c2.8,1.5,6.3,0.5,7.9-2.2s0.6-6.1-2.1-7.7c-2-1.1-4.5-0.9-6.3,0.5l-8.4-4.6l-2.3,4
		l8.4,4.6C285.4,308.9,286.5,311.1,288.5,312.2L288.5,312.2z"/>
	<path id="Path_61_" class="st0" d="M268.3,330.5c1.7,2.3,4.9,3.1,7.5,1.7c2.6-1.3,3.8-4.4,2.8-7c-1-2.7-3.9-4.2-6.8-3.6L266,314
		l-3.8,2.7l5.7,7.6C266.8,326.2,266.9,328.7,268.3,330.5L268.3,330.5z"/>
	<path id="Path_60_" class="st0" d="M242.2,339.2c0.5,2,2,3.6,4,4.2s4.2,0.1,5.7-1.2c1.5-1.4,2.2-3.5,1.8-5.4
		c-0.5-2.2-2.3-3.9-4.6-4.3l-2.1-9.2l-4.6,1l2.1,9.2C242.6,334.7,241.7,337,242.2,339.2z"/>
	<path id="Path_59_" class="st0" d="M214.8,336.8c-0.5,3,1.5,6,4.6,6.6c3.1,0.6,6.2-1.3,6.9-4.3c0.4-2.2-0.5-4.4-2.4-5.7l1.9-9.2
		l-4.6-0.9l-1.9,9.2C217,332.9,215.2,334.6,214.8,336.8L214.8,336.8z"/>
	<path id="Path_58_" class="st0" d="M190.7,323.8c-1.8,2.3-1.5,5.5,0.6,7.5s5.4,2.2,7.7,0.4c2.3-1.8,2.9-5,1.4-7.4l5.6-7.7l-3.8-2.7
		l-5.6,7.6C194.3,321.1,192,322,190.7,323.8z"/>
	<path id="Path_57_" class="st0" d="M174.1,302.3c-2.7,1.6-3.5,5.1-1.9,7.7s5.1,3.6,7.9,2.1c2-1.1,3.1-3.3,2.7-5.5l8.3-4.8l-2.4-3.9
		l-8.3,4.8C178.6,301.3,176.1,301.2,174.1,302.3z"/>
	<path id="Path_56_" class="st0" d="M167.9,276.1c-3.1,0.4-5.4,3.2-5,6.3c0.4,3.1,3.2,5.3,6.3,5c2.3-0.3,4.2-1.8,4.8-4l9.6-1.1
		l-0.5-4.5l-9.6,1.1C172.4,277,170.2,275.9,167.9,276.1L167.9,276.1z"/>
	<path id="Path_55_" class="st0" d="M173.2,249.8c-3.1-0.9-6.3,0.8-7.2,3.8c-1,3,0.7,6.1,3.7,7.1c2.2,0.7,4.6,0,6.1-1.7l9.2,2.8
		l1.4-4.4l-9.2-2.8C177,252.3,175.4,250.5,173.2,249.8z"/>
	<path id="Path_54_" class="st0" d="M189.1,227.8c-2.2-1.9-5.5-2-7.7-0.2s-2.8,5-1.2,7.4c1.6,2.4,4.8,3.3,7.4,2.1l7.2,6.2l3.1-3.4
		l-7.2-6.2C191.4,231.6,190.8,229.3,189.1,227.8L189.1,227.8z"/>
	<path id="Path_53_" class="st0" d="M212.7,214c-1.3-2.9-4.8-4.1-7.8-2.8c-2.9,1.3-4.2,4.7-2.9,7.6c1,2,3.1,3.3,5.4,3.2l4,8.6
		l4.3-1.9l-4-8.6C213.3,218.4,213.7,216,212.7,214L212.7,214z"/>
	<path id="Path_52_" class="st0" d="M240.3,211.2c0-2-1.2-3.9-3-4.9c-1.8-1-4.1-1-5.9,0c-1.8,1-2.9,2.9-2.9,5c0,2.2,1.4,4.3,3.6,5.1
		l0.1,9.4l4.7,0l-0.1-9.4C239,215.5,240.3,213.4,240.3,211.2z"/>
	<ellipse id="Oval_3_" class="st0" cx="233.6" cy="275.4" rx="51.7" ry="50.3"/>
	<g>
		<path id="Path_51_" class="st0" d="M223.7,298.2c0.3-0.8,0.9-1.5,1.6-1.9c1-0.5,2.3-0.5,3.2,0.1c1,0.6,1.6,1.7,1.5,2.8
			c0,1.1-0.7,2.1-1.7,2.7c-0.8,0.4-1.7,0.5-2.5,0.2"/>
		<path class="st1" d="M226.8,303.4c-0.4,0-0.8-0.1-1.2-0.2c-0.6-0.2-0.9-0.8-0.7-1.3c0.2-0.6,0.8-0.9,1.3-0.7
			c0.6,0.2,1.2,0.1,1.7-0.2c0.7-0.3,1.1-1,1.1-1.7c0-0.7-0.3-1.4-1-1.8c-0.7-0.4-1.5-0.4-2.2-0.1c-0.5,0.3-0.9,0.7-1.1,1.3
			c-0.2,0.6-0.8,0.9-1.4,0.7c-0.6-0.2-0.9-0.8-0.7-1.4c0.4-1.1,1.1-2,2.2-2.5c1.3-0.7,3-0.6,4.3,0.1c1.3,0.8,2.1,2.2,2,3.8
			c-0.1,1.5-1,2.9-2.3,3.6C228.2,303.2,227.5,303.4,226.8,303.4z"/>
	</g>
	<g>
		<path id="Path_50_" class="st0" d="M254.1,303.8c1.5,1.1,2.1,3.1,1.6,4.8c-0.5,1.8-2.1,3.1-4,3.3s-3.7-0.7-4.6-2.3
			c-0.9-1.6-0.7-3.6,0.5-5"/>
		<path class="st2" d="M251.1,313c-2.1,0-4-1.1-5-2.9c-1.1-2-0.9-4.5,0.6-6.3c0.4-0.5,1.1-0.5,1.5-0.1c0.5,0.4,0.5,1.1,0.1,1.5
			c-0.9,1.1-1,2.6-0.4,3.8c0.7,1.2,2.1,2,3.5,1.8c1.5-0.2,2.6-1.1,3-2.5c0.4-1.3-0.1-2.8-1.2-3.7c-0.5-0.4-0.6-1-0.2-1.5
			c0.4-0.5,1.1-0.6,1.5-0.2c1.8,1.4,2.6,3.8,2,6c-0.7,2.2-2.6,3.8-4.9,4C251.6,313,251.4,313,251.1,313z"/>
	</g>
	<g>
		<path id="Path_49_" class="st0" d="M270.5,279.8c-2.3,1-4.9,1.2-7.2,0.4c-3.3-0.9-5.7-3.5-6.4-6.8c-0.7-3.2,0.5-6.6,3.1-8.7
			c2.6-2.1,6.2-2.7,9.3-1.4c2.3,0.8,4.3,2.5,5.4,4.6"/>
		<path class="st1" d="M266.4,281.8c-1.2,0-2.4-0.2-3.5-0.6c-3.6-1-6.3-3.9-7.1-7.6c-0.8-3.6,0.6-7.4,3.5-9.8
			c2.9-2.4,6.9-3,10.4-1.6c2.6,0.9,4.7,2.7,6,5.1c0.3,0.5,0.1,1.2-0.5,1.5c-0.5,0.3-1.2,0.1-1.5-0.5c-1-1.9-2.7-3.4-4.8-4.1
			c-2.8-1.1-6-0.6-8.3,1.2c-2.3,1.9-3.3,4.8-2.7,7.6c0.6,2.8,2.8,5.1,5.6,6c2.2,0.7,4.4,0.6,6.5-0.3c0.5-0.3,1.2,0,1.4,0.5
			c0.3,0.5,0,1.2-0.5,1.4C269.5,281.4,268,281.8,266.4,281.8z"/>
	</g>
	<g>
		<path id="Path_48_" class="st0" d="M239.8,242.3c0.5-1.7,1.7-3,3.3-3.8c2.1-1.1,4.6-1,6.6,0.3s3.1,3.4,3.1,5.7
			c-0.1,2.3-1.4,4.3-3.5,5.4c-1.6,0.8-3.4,1-5.1,0.5"/>
		<path class="st2" d="M246.1,251.6c-0.7,0-1.5-0.1-2.2-0.3c-0.6-0.2-0.9-0.8-0.7-1.3c0.2-0.6,0.8-0.9,1.3-0.7
			c1.4,0.4,3,0.3,4.3-0.4c1.7-0.9,2.8-2.6,2.9-4.5c0.1-1.9-0.9-3.7-2.5-4.7c-1.7-1-3.8-1.1-5.5-0.2c-1.3,0.7-2.3,1.8-2.8,3.2
			c-0.2,0.6-0.8,0.9-1.4,0.7c-0.6-0.2-0.9-0.8-0.7-1.4c0.6-1.9,2-3.6,3.9-4.5c2.4-1.2,5.3-1.1,7.6,0.3c2.3,1.4,3.7,4,3.6,6.6
			c-0.1,2.7-1.7,5.1-4.1,6.3C248.6,251.3,247.4,251.6,246.1,251.6z"/>
	</g>
	<g>
		<path id="Path_47_" class="st0" d="M233.6,266.5c-0.2,1.3-1.1,2.3-2.4,2.7c-1.3,0.4-2.6-0.1-3.5-1.1c-0.8-1-0.8-2.4-0.2-3.5
			c0.7-1.1,1.9-1.7,3.2-1.6"/>
		<path class="st2" d="M230.3,270.4c-1.3,0-2.5-0.6-3.4-1.6c-1.1-1.4-1.2-3.3-0.3-4.8c0.9-1.5,2.6-2.3,4.3-2.1c0.6,0.1,1,0.6,1,1.2
			s-0.6,1-1.2,1c-0.9-0.1-1.7,0.3-2.2,1.1c-0.4,0.7-0.4,1.6,0.1,2.3c0.5,0.6,1.4,0.9,2.3,0.7c0.8-0.2,1.5-0.9,1.6-1.8
			c0.1-0.6,0.6-1,1.2-0.9c0.6,0.1,1,0.6,0.9,1.2c-0.2,1.7-1.5,3.1-3.2,3.6C231.2,270.4,230.7,270.4,230.3,270.4z"/>
	</g>
	<g>
		<path id="Path_46_" class="st0" d="M201.7,293.2c-1.7-0.9-2.6-2.6-2.4-4.5c0.2-1.8,1.5-3.4,3.3-3.9c1.8-0.5,3.8,0.1,5,1.5
			s1.4,3.4,0.4,5"/>
		<path class="st2" d="M201.7,294.3c-0.2,0-0.3,0-0.5-0.1c-2.1-1.1-3.2-3.3-3-5.6c0.2-2.3,1.9-4.2,4.1-4.8c2.2-0.6,4.6,0.1,6.1,1.9
			c1.5,1.8,1.7,4.3,0.5,6.3c-0.3,0.5-1,0.7-1.5,0.4c-0.5-0.3-0.7-1-0.4-1.5c0.7-1.2,0.6-2.7-0.3-3.8c-0.9-1.1-2.4-1.6-3.8-1.2
			c-1.4,0.4-2.4,1.6-2.5,3c-0.2,1.4,0.6,2.7,1.8,3.4c0.5,0.3,0.7,0.9,0.5,1.5C202.5,294.1,202.1,294.3,201.7,294.3z"/>
	</g>
	<g>
		<path id="Path_45_" class="st0" d="M199.8,252.1c2-1.4,4.6-2,7-1.6c3.3,0.4,6.1,2.6,7.3,5.6c1.2,3,0.6,6.5-1.5,9
			c-2.1,2.5-5.5,3.7-8.8,3.1c-2.5-0.4-4.6-1.7-6.1-3.6"/>
		<path class="st1" d="M205.6,269.5c-0.6,0-1.3-0.1-1.9-0.2c-2.7-0.4-5.1-1.9-6.8-4c-0.4-0.5-0.3-1.2,0.2-1.5
			c0.5-0.4,1.2-0.3,1.5,0.2c1.3,1.7,3.2,2.9,5.4,3.2c2.9,0.5,5.9-0.5,7.8-2.7c1.9-2.2,2.4-5.2,1.3-7.9c-1.1-2.7-3.5-4.6-6.5-5
			c-2.2-0.4-4.5,0.1-6.3,1.4c-0.5,0.3-1.2,0.2-1.5-0.3c-0.3-0.5-0.2-1.2,0.3-1.5c2.3-1.6,5.1-2.2,7.8-1.8c3.7,0.5,6.8,2.9,8.2,6.3
			c1.4,3.4,0.7,7.3-1.7,10.1C211.6,268.2,208.6,269.5,205.6,269.5z"/>
	</g>
</g>
</svg>
